# xmcd
#
# Track frame offsets: 
#        150
#        23460
#        39785
#        55940
#        77097
#        95432
#        113480
#        127407
#        148582
#        170822
#        192060
#        213672
#        237275
#
# Disc length: 3527 seconds
#
# Revision: 0
# Processed by: cddbd v1.5.2PL0 Copyright (c) Steve Scherf et al.
# Submitted via: ExactAudioCopy v0.95b4
#
DISCID=ad0dc50d
DTITLE=Various Artist - 驛動男人心 II
DYEAR=1997
DGENRE=Pop
TTITLE0=其實不想走 (周華健)
TTITLE1=等你的心 (無印良品) 
TTITLE2=當初應該愛你 (趙傳) 
TTITLE3=痛哭的人 (伍佰) 
TTITLE4=感受 (成龍)
TTITLE5=美麗的花蝴蝶 (張洪量)
TTITLE6=crying in a storm (吳念真)
TTITLE7=放一顆心 (杜德偉)
TTITLE8=最後一次溫柔 (陳昇)
TTITLE9=你在他鄉 (剛澤斌)
TTITLE10=為愛偷生 (郭子)
TTITLE11=我要的不多 (馬兆駿)
TTITLE12=向前走 (林強)
EXTD=
EXTT0=
EXTT1=
EXTT2=
EXTT3=
EXTT4=
EXTT5=
EXTT6=
EXTT7=
EXTT8=
EXTT9=
EXTT10=
EXTT11=
EXTT12=
PLAYORDER=
